<?xml version="1.0" encoding="UTF-8"?>
<svg version="1.1" xmlns="http://www.w3.org/2000/svg" width="612" height="600">
<path d="M0 0 C0.76248047 -0.01546875 1.52496094 -0.0309375 2.31054688 -0.046875 C8.75127993 -0.00287341 13.94436236 1.86853316 18.8125 6.1484375 C23.54571986 13.4126152 22.89721545 21.51663284 21.30859375 29.765625 C13.66476926 57.59874378 -9.15119501 80.9621009 -28.40136719 101.44458008 C-33.21739246 106.59784366 -37.65591929 111.99177411 -42.0625 117.5 C-44.01067914 119.90163463 -45.9780771 122.21221877 -48.0625 124.5 C-48.7225 124.5 -49.3825 124.5 -50.0625 124.5 C-48.08498376 110.65738634 -40.31189979 98.66330982 -31.0625 88.5 C-30.29550781 87.63761719 -29.52851563 86.77523437 -28.73828125 85.88671875 C-27.22384858 84.19230257 -25.7018803 82.50458664 -24.171875 80.82421875 C-22.31623343 78.77957665 -20.49493624 76.71215851 -18.6875 74.625 C-16.23708227 71.80107748 -13.71669523 69.05492881 -11.16137695 66.32568359 C-6.7086162 61.55173252 -2.4867113 56.67192995 1.5 51.5 C1.91741455 50.96028564 2.3348291 50.42057129 2.76489258 49.86450195 C6.77099684 44.57983609 8.63797015 41.27121143 7.9375 34.5 C6.18255919 31.39960457 4.44924333 29.01174333 1.9375 26.5 C-1.30054638 26.16086339 -4.56542042 26.45549593 -7.8125 26.625 C-8.79750488 26.67575684 -9.78250977 26.72651367 -10.79736328 26.77880859 C-37.21751889 28.41352158 -61.96804824 36.89164714 -86.6940918 45.75732422 C-96.0698739 49.11596373 -105.4831947 52.31744174 -114.94906616 55.41226196 C-168.41853801 72.92645552 -222.69937568 92.34697895 -271.0625 121.5 C-267.26756478 125.53484492 -263.24083235 128.6748734 -258.6875 131.8125 C-257.95418457 132.32393555 -257.22086914 132.83537109 -256.46533203 133.36230469 C-254.85802746 134.48225453 -253.24906716 135.59983095 -251.63867188 136.71533203 C-248.96930519 138.5645616 -246.30453523 140.42026367 -243.640625 142.27734375 C-238.77489283 145.6678587 -233.90509351 149.05248161 -229.03417969 152.43554688 C-224.20859104 155.78792755 -219.38563736 159.14409403 -214.5625 162.5 C-208.77804165 166.5244422 -202.99324201 170.54839015 -197.20703125 174.5703125 C-195.26299182 175.92183327 -193.31898128 177.2733956 -191.375 178.625 C-190.41924072 179.28943115 -189.46348145 179.9538623 -188.47875977 180.63842773 C-183.12991334 184.35902708 -177.78670779 188.08724086 -172.4609375 191.84082031 C-170.82822372 192.98307205 -169.18759472 194.11409739 -167.5390625 195.23339844 C-163.07461919 198.27974524 -158.89605682 201.45291082 -154.8046875 204.98828125 C-145.89393231 212.77826217 -145.89393231 212.77826217 -134.79980469 215.39599609 C-128.07375094 214.06774178 -121.98047482 211.51500551 -115.77856445 208.65429688 C-104.24153399 203.75118856 -91.33008942 204.38773276 -79.0625 204.5 C-81.52357758 193.92809588 -84.04425811 183.38049441 -86.8515625 172.89453125 C-87.20066681 171.58704422 -87.20066681 171.58704422 -87.55682373 170.25314331 C-88.50282115 166.7168334 -89.45148449 163.18131417 -90.41113281 159.64868164 C-94.6775769 143.90931331 -98.68191716 128.10589379 -98.5 111.6875 C-98.49460205 110.71901123 -98.4892041 109.75052246 -98.48364258 108.75268555 C-98.28908403 99.56536943 -97.05362305 90.8301133 -91.0625 83.5 C-87.53657316 84.67530895 -87.14546067 85.75789701 -85.53822327 88.9564209 C-85.23814865 89.5792395 -84.93807404 90.20205811 -84.62890625 90.84375 C-84.30969711 91.48687134 -83.99048798 92.12999268 -83.66160583 92.79260254 C-82.63997291 94.85723592 -81.63259994 96.9284881 -80.625 99 C-79.95074753 100.36501724 -79.27562658 101.72960587 -78.59960938 103.09375 C-69.0625 122.40150194 -69.0625 122.40150194 -69.0625 126.5 C-72.0325 126.17 -75.0025 125.84 -78.0625 125.5 C-75.14541212 161.15813395 -64.68542208 190.75899745 -37.0625 214.5 C-34.69035262 216.27192221 -32.31079284 218.01591191 -29.875 219.69921875 C-25.9597172 223.58918722 -25.80778428 228.54460613 -25.7890625 233.77734375 C-25.79679687 234.51082031 -25.80453125 235.24429688 -25.8125 236 C-25.80476563 236.73347656 -25.79703125 237.46695313 -25.7890625 238.22265625 C-25.80507038 242.6968584 -26.38234832 246.28628625 -28.0625 250.5 C-32.0020312 249.96744639 -34.037688 248.99122011 -37 246.375 C-51.46974 234.70817321 -70.62279946 229.27491107 -89.0625 230.5 C-98.53457238 231.67668313 -98.53457238 231.67668313 -107.0625 235.5 C-100.00469132 241.60185189 -92.93874682 247.66008038 -85.6171875 253.4453125 C-82.00317858 256.35199245 -78.47853007 259.36008497 -74.94677734 262.36572266 C-71.53761594 265.26316004 -68.09888783 268.11752047 -64.625 270.9375 C-58.61676535 275.83116358 -52.74790867 280.88026792 -46.87841797 285.93847656 C-45.05949352 287.5025853 -43.23569921 289.06081076 -41.41015625 290.6171875 C-36.17610028 295.08231923 -30.96412956 299.55663329 -25.875 304.1875 C-21.60871883 308.06212257 -17.18529572 311.7039213 -12.69921875 315.3203125 C-10.31981785 317.28728391 -8.06730985 319.33075459 -5.8125 321.4375 C-1.88761237 324.97132093 2.30800486 327.94175428 6.6875 330.875 C7.3259082 331.30417725 7.96431641 331.73335449 8.62207031 332.17553711 C11.98677693 334.38500427 15.17754165 336.02528695 18.9375 337.5 C17.84529122 327.49866746 16.73952512 317.49886726 15.625 307.5 C15.49549265 306.33790449 15.49549265 306.33790449 15.36336899 305.15233231 C12.33382255 278.00151423 9.03570641 250.88937276 5.60996246 223.78590393 C-0.79972876 173.06564407 -0.79972876 173.06564407 -3.25 150.75 C-3.35081879 149.85054657 -3.45163757 148.95109314 -3.55551147 148.02438354 C-6.55452562 121.11370296 -6.55452562 121.11370296 -2.0625 114.75 C-1.505625 113.93015625 -0.94875 113.1103125 -0.375 112.265625 C0.058125 111.68296875 0.49125 111.1003125 0.9375 110.5 C3.30892729 112.65405304 4.63853033 114.60424017 5.94287109 117.52148438 C6.48891495 118.72919495 6.48891495 118.72919495 7.04598999 119.96130371 C7.62263901 121.26436462 7.62263901 121.26436462 8.2109375 122.59375 C8.61655914 123.49565063 9.02218079 124.39755127 9.44009399 125.32678223 C10.73733333 128.21501896 12.02507165 131.10737863 13.3125 134 C14.17124196 135.91695038 15.03061033 137.83362027 15.890625 139.75 C17.5288164 143.40169796 19.16211873 147.05552031 20.79199219 150.7109375 C22.87705263 155.3800121 25.00958136 160.02522077 27.18212891 164.65429688 C27.9375 166.5 27.9375 166.5 27.9375 168.5 C24.78419446 167.89305845 22.74861133 166.8583335 20.1875 164.9375 C19.57390625 164.48246094 18.9603125 164.02742187 18.328125 163.55859375 C17.86921875 163.20925781 17.4103125 162.85992187 16.9375 162.5 C18.25074911 179.35567051 20.14507634 196.10079139 22.2734375 212.87109375 C22.5976835 215.45194264 22.92153753 218.0328408 23.24502563 220.61378479 C24.00523977 226.67396825 24.7698195 232.73359197 25.53610957 238.79300982 C26.47844879 246.24628781 27.41499494 253.70029183 28.3515625 261.15429688 C29.33390097 268.97130388 30.31711444 276.78819756 31.30438232 284.60458374 C32.63895118 295.1712329 33.97255716 305.73786354 35.27050781 316.30908203 C35.46008987 317.8482314 35.64967507 319.38738039 35.83926392 320.92652893 C36.1681958 323.598455 36.49316009 326.27075848 36.81576538 328.94346619 C36.95342316 330.06306229 37.09108093 331.18265839 37.23291016 332.33618164 C37.34672028 333.27563126 37.4605304 334.21508087 37.57778931 335.18299866 C37.89477494 337.65006869 37.89477494 337.65006869 38.9375 340.5 C43.81779511 342.94014756 50.63684818 342.05152612 55.7890625 340.81640625 C64.51823927 337.7850927 73.99059202 333.77190465 79.9375 326.5 C80.25335343 323.71268039 80.25744152 321.69827544 79.9609375 318.96557617 C79.86466568 317.8014824 79.86466568 317.8014824 79.76644897 316.61387157 C79.52658205 313.90439146 79.2369796 311.20352638 78.9375 308.5 C78.82990356 307.49886295 78.72230713 306.49772591 78.6114502 305.46625137 C77.75910961 297.66652016 76.80147955 289.88114416 75.81991196 282.09674621 C75.55779646 280.01339654 75.29793283 277.92977716 75.03872681 275.84606361 C70.59100794 240.1064585 65.8141737 204.40958249 61.01521397 168.7157594 C60.17337014 162.45122427 59.33602087 156.18609916 58.50097656 149.9206543 C57.09005468 139.33560878 55.67386726 128.75128111 54.25 118.16796875 C54.13581474 117.31913541 54.02162949 116.47030208 53.90398407 115.59574652 C50.61598481 91.17553013 47.14290988 66.79723774 43.22192383 42.46928406 C42.98699219 40.99700253 42.98699219 40.99700253 42.74731445 39.49497795 C42.46205693 37.7122464 42.17222904 35.93023618 41.87646484 34.14921761 C40.93557627 28.26918942 39.99797309 22.27916351 42.03125 16.53515625 C42.25683594 15.88095703 42.48242188 15.22675781 42.71484375 14.55273438 C43.07255859 13.56756836 43.07255859 13.56756836 43.4375 12.5625 C43.79521484 11.53672852 43.79521484 11.53672852 44.16015625 10.49023438 C44.74295882 8.82341903 45.33887051 7.16119684 45.9375 5.5 C47.2575 5.5 48.5775 5.5 49.9375 5.5 C55.50082804 15.93739419 60.95250952 26.42489705 66.25 37 C66.74081055 37.97710937 67.23162109 38.95421875 67.73730469 39.9609375 C76.9375 58.39880346 76.9375 58.39880346 76.9375 61.5 C73.35035005 60.42385501 70.04960805 59.11483178 66.71875 57.421875 C66.00783203 57.0619043 65.29691406 56.70193359 64.56445312 56.33105469 C64.02755859 56.05680664 63.49066406 55.78255859 62.9375 55.5 C66.51334948 90.8558026 70.52416161 126.13762518 75.125 161.375 C75.23879879 162.24668194 75.35259758 163.11836388 75.46984482 164.01646042 C76.89628595 174.93335257 78.33607202 185.84846823 79.78123188 196.76289654 C80.71964877 203.85040771 81.65525934 210.93828531 82.58935547 218.02636719 C82.72833409 219.08091661 82.86731272 220.13546604 83.01050282 221.22197151 C83.43281315 224.42662289 83.85508263 227.63127964 84.27734375 230.8359375 C86.51210592 247.79616136 86.51210592 247.79616136 88.75499439 264.75531197 C89.25374685 268.51964586 89.7518764 272.28406207 90.24998665 276.04848099 C90.48105029 277.79317339 90.71244869 279.53782151 90.94421196 281.28242111 C97.2365022 328.64843481 97.2365022 328.64843481 82.0546875 349.02734375 C74.99149827 357.27641899 64.64817996 362.0642573 54.9375 366.5 C54.14085937 366.89445312 53.34421875 367.28890625 52.5234375 367.6953125 C48.90160449 368.82234815 45.723457 368.62833753 41.9375 368.5 C41.99808594 369.13010986 42.05867188 369.76021973 42.12109375 370.40942383 C43.93084599 390.3497613 44.1359964 410.23945745 44.125 430.25 C44.12608765 432.21388168 44.12608765 432.21388168 44.12719727 434.21743774 C44.12695973 438.01480314 44.11816974 441.81203249 44.10546875 445.609375 C44.10367867 447.31274269 44.10367867 447.31274269 44.10185242 449.05052185 C44.06184748 455.91746066 43.68150436 462.67301731 42.9375 469.5 C44.03320312 468.96632813 45.12890625 468.43265625 46.2578125 467.8828125 C66.11102761 458.46301365 87.43229974 451.10334958 108.9375 446.5 C108.67195313 445.33726562 108.40640625 444.17453125 108.1328125 442.9765625 C102.87428177 419.37778753 97.93763925 392.63104291 111.57421875 370.890625 C114.86771204 366.36114659 118.32104236 361.92046849 123.9375 360.5 C138.59292732 358.91398081 138.59292732 358.91398081 144 362.375 C145.49609375 363.7734375 145.49609375 363.7734375 146.9375 365.5 C147.52660156 366.19351562 148.11570312 366.88703125 148.72265625 367.6015625 C158.6156248 380.49812871 162.24573212 396.50313638 160.9375 412.5 C158.1220273 431.66045889 148.5338645 446.19020993 134.9375 459.5 C135.86354246 462.56622947 136.46114593 464.16072624 139.109375 466.046875 C139.96015625 466.44390625 140.8109375 466.8409375 141.6875 467.25 C142.52796875 467.65734375 143.3684375 468.0646875 144.234375 468.484375 C162.00941172 475.162857 183.87579657 468.0918042 200.7265625 461.671875 C203.9375 460.5 203.9375 460.5 205.9375 460.5 C203.08879248 428.5152818 199.83804052 396.5976774 195.89599299 364.72879171 C195.4717779 361.29405888 195.05062404 357.8589526 194.62925631 354.42386949 C190.84002068 323.54370993 186.96460334 292.67420844 183.08984375 261.8046875 C182.86958401 260.04982206 182.86958401 260.04982206 182.64487457 258.2595048 C181.60025773 249.93727342 180.55516986 241.61510126 179.50976562 233.29296875 C179.36108284 232.1093462 179.21240005 230.92572364 179.05921173 229.70623374 C177.37498235 216.29978157 175.68872908 202.89358683 173.99926758 189.48779297 C172.62542165 178.58617826 171.25512134 167.684124 169.88877493 156.78156674 C169.03658295 149.9830961 168.18020356 143.18517159 167.3205117 136.38764548 C166.79066219 132.18961933 166.26500604 127.99107587 165.74051285 123.79237747 C165.49916803 121.86696608 165.2561583 119.94176245 165.01125908 118.01679993 C160.68304748 83.97013403 160.68304748 83.97013403 165.375 76 C165.71337891 75.35675781 166.05175781 74.71351562 166.40039062 74.05078125 C167.21351821 72.51614609 168.0704834 71.00484676 168.9375 69.5 C171.21598099 71.77848099 171.7954719 73.42144339 172.8984375 76.43359375 C173.28201416 77.46266846 173.66559082 78.49174316 174.06079102 79.55200195 C174.47385498 80.66921631 174.88691895 81.78643066 175.3125 82.9375 C179.50171646 94.09227869 184.12251328 104.949994 189.08935547 115.77709961 C189.57678223 116.84710205 190.06420898 117.91710449 190.56640625 119.01953125 C191.00025635 119.95901611 191.43410645 120.89850098 191.88110352 121.86645508 C192.90464736 124.41809997 193.49601494 126.79257216 193.9375 129.5 C190.78322265 127.66000488 187.8393448 125.71358674 184.9375 123.5 C185.5968875 137.45046061 186.70057474 151.34041255 187.98828125 165.24609375 C188.09390192 166.39134459 188.19952259 167.53659542 188.30834389 168.71655083 C191.09952405 198.73213089 194.69391606 228.65167975 198.28792936 258.57938844 C199.23666531 266.4837594 200.17519497 274.3893343 201.11308324 282.29499853 C204.21773081 308.46196416 207.34290823 334.62642129 210.50901794 360.786026 C211.35542401 367.781511 212.19535034 374.77776848 213.03300571 381.7743063 C213.56028676 386.17330824 214.09194836 390.57167781 214.63485718 394.96878052 C219.72070216 436.17539801 219.72070216 436.17539801 216.6875 454 C216.4850769 455.24885986 216.4850769 455.24885986 216.27856445 456.52294922 C214.04361355 469.49199576 208.92311402 483.42072979 197.9375 491.5 C184.04392396 500.29828631 168.25213683 504.50016973 151.875 501.75 C136.87861162 498.33017646 128.72402983 486.94825788 120.7734375 474.625 C118.9375 471.5 118.9375 471.5 118.9375 469.5 C97.51714832 474.56159659 77.69007809 479.95883073 58.52612305 491.05981445 C55.9375 492.5 55.9375 492.5 52.53051758 494.05541992 C45.59937228 497.48944257 45.59937228 497.48944257 41.71655273 503.86328125 C41.27952333 507.25063715 41.04227257 510.48914594 41.01754761 513.89663696 C40.98772205 517.57794098 40.75294718 521.24744789 40.5390625 524.921875 C40.50145309 525.65267776 40.46384369 526.38348053 40.4250946 527.13642883 C40.03034802 533.90544042 38.69852196 540.28218258 36.875 546.8125 C36.4874353 548.21447632 36.4874353 548.21447632 36.09204102 549.64477539 C34.98258659 553.47007053 33.79652118 556.96751153 31.9375 560.5 C31.2775 560.5 30.6175 560.5 29.9375 560.5 C28.94802989 549.73480799 28.63102976 538.98986581 28.375 528.1875 C28.33168595 526.464185 28.28806819 524.7408776 28.24414062 523.01757812 C28.13843287 518.84513131 28.03680969 514.6726038 27.9375 510.5 C26.20128103 511.74613274 24.46735693 512.99546321 22.734375 514.24609375 C21.28562988 515.28914673 21.28562988 515.28914673 19.80761719 516.35327148 C6.94134366 525.97671 -4.9481744 538.21612867 -14.8828125 550.8125 C-18.24286134 554.95535592 -21.88694132 558.82401676 -25.51171875 562.734375 C-27.54651883 564.94055947 -29.53896238 567.16632261 -31.5 569.4375 C-32.68462735 570.79418038 -33.87254095 572.14799368 -35.0625 573.5 C-35.48080078 573.97550293 -35.89910156 574.45100586 -36.33007812 574.94091797 C-58.04317085 599.47006896 -58.04317085 599.47006896 -71.9765625 600.90234375 C-84.40839389 601.54853546 -94.35977823 598.54212962 -104.03515625 590.44140625 C-116.98004864 578.04523762 -122.41748881 561.10880562 -123.0625 543.5 C-124.22394531 543.80679688 -125.38539063 544.11359375 -126.58203125 544.4296875 C-150.9848086 550.49162606 -183.42504332 551.62158668 -206.0625 539.5 C-223.06837934 529.04012536 -232.4887328 513.63157537 -237.0625 494.5 C-238.85568329 486.31961456 -239.61589103 478.15705383 -240.1875 469.8125 C-240.31705078 468.02682617 -240.31705078 468.02682617 -240.44921875 466.20507812 C-240.65895539 463.30372125 -240.86328324 460.40209489 -241.0625 457.5 C-245.56919553 459.63427088 -249.24353539 462.67668962 -253.109375 465.77929688 C-261.84513522 472.65922071 -269.41947938 474.39511759 -280.36328125 473.26171875 C-291.86191147 471.23975713 -301.1639628 463.34049627 -307.81640625 454.05078125 C-318.06866855 437.68313442 -319.21990875 419.83771342 -315.3125 401.18359375 C-311.7352506 386.99916109 -306.65400793 373.00596552 -301.0625 359.5 C-302.2213269 359.04185913 -302.2213269 359.04185913 -303.40356445 358.57446289 C-318.20837848 352.59190973 -329.92195618 342.39821716 -336.30078125 327.67578125 C-344.09312835 305.41764106 -335.88427836 280.19338469 -326.2890625 260.015625 C-323.72017559 254.74577473 -321.02326885 249.56233419 -318.0625 244.5 C-316.49817486 247.62865028 -317.54854583 250.66852994 -318.125 254 C-318.25567871 254.77448486 -318.38635742 255.54896973 -318.52099609 256.34692383 C-320.01561543 264.82054404 -321.99023449 273.18491288 -323.99243164 281.55078125 C-327.86045024 297.77795209 -329.57914097 312.4692782 -321.4375 327.5 C-314.93932291 332.97214913 -306.17695532 333.12604106 -298.0625 332.5 C-297.35867188 332.45359375 -296.65484375 332.4071875 -295.9296875 332.359375 C-277.90650934 329.75526561 -259.26264969 312.5745073 -245.97265625 301.015625 C-243.38147682 298.77573298 -240.74998426 296.62237922 -238.0625 294.5 C-233.60963858 290.97090886 -229.27319577 287.31909922 -224.94921875 283.63452148 C-221.527858 280.72365426 -218.06459203 277.87640801 -214.5625 275.0625 C-209.17676586 270.68315122 -204.11433201 265.99955162 -199.04296875 261.265625 C-196.79651311 259.17089076 -194.51776572 257.12670331 -192.1875 255.125 C-185.62760097 249.45963266 -179.37925753 243.43306386 -173.0625 237.5 C-174.34557394 233.65077817 -176.6695309 232.25052318 -179.8125 229.9375 C-181.00534895 229.04055156 -182.19805335 228.14341085 -183.390625 227.24609375 C-184.30811523 226.56135986 -184.30811523 226.56135986 -185.24414062 225.86279297 C-188.03789383 223.76897847 -190.79937007 221.63395664 -193.5625 219.5 C-194.64565755 218.6664382 -195.72899151 217.83310558 -196.8125 217 C-203.3125 212 -203.3125 212 -204.93554688 210.75146484 C-206.02534228 209.91318584 -207.11518649 209.07497029 -208.20507812 208.23681641 C-210.81493584 206.22965229 -213.42389105 204.22134848 -216.03125 202.2109375 C-225.415524 194.97924181 -234.8421424 187.80343914 -244.26904297 180.62744141 C-247.06712234 178.49647971 -249.86385096 176.36375778 -252.66015625 174.23046875 C-267.07326804 162.72477722 -267.07326804 162.72477722 -282.17382812 152.19580078 C-284.0625 150.5 -284.0625 150.5 -284.56420898 148.27026367 C-284.56235596 147.41150635 -284.56050293 146.55274902 -284.55859375 145.66796875 C-284.56149414 144.71108154 -284.56439453 143.75419434 -284.56738281 142.76831055 C-284.54514648 141.75164307 -284.52291016 140.73497559 -284.5 139.6875 C-284.48678711 138.64956299 -284.47357422 137.61162598 -284.45996094 136.54223633 C-284.27269416 128.52409699 -283.40849825 121.20099425 -281.0625 113.5 C-280.67964844 112.08654297 -280.67964844 112.08654297 -280.2890625 110.64453125 C-276.71909749 99.55798854 -264.77159462 95.55090534 -255.125 90.4375 C-254.51513245 90.11330078 -253.90526489 89.78910156 -253.2769165 89.45507812 C-248.88107021 87.11950468 -244.47504179 84.80385925 -240.0625 82.5 C-238.97662598 81.93297363 -237.89075195 81.36594727 -236.77197266 80.78173828 C-206.50125648 65.0863365 -175.1400476 52.18769447 -143.21112061 40.30084229 C-141.23726396 39.56513871 -139.26507592 38.82517112 -137.29345703 38.08349609 C-107.9064775 27.07743305 -77.761318 18.18687676 -47.5 9.9375 C-46.59209717 9.68969788 -45.68419434 9.44189575 -44.7487793 9.18658447 C-38.86320418 7.58572841 -32.96892696 6.02212008 -27.0625 4.5 C-26.28014984 4.29763733 -25.49779968 4.09527466 -24.69174194 3.88677979 C-16.49029125 1.78764059 -8.52686838 -0.18126204 0 0 Z M-154.19921875 255.4765625 C-166.57274125 263.47292773 -177.72563328 273.06268929 -188.48046875 283.09765625 C-190.57876648 285.04993024 -192.70122023 286.94593536 -194.875 288.8125 C-199.45722256 292.78502974 -203.85788475 296.95105959 -208.28344727 301.09594727 C-213.24014333 305.73758084 -218.22475489 310.34597646 -223.2421875 314.921875 C-225.08934608 316.61041332 -226.92825172 318.30803494 -228.7578125 320.015625 C-245.87254845 335.88293122 -264.91708484 349.44264959 -286.30859375 358.94140625 C-291.75820167 362.02565243 -294.04041976 366.98675877 -296.4375 372.5625 C-296.73422607 373.25005371 -297.03095215 373.93760742 -297.33666992 374.64599609 C-304.93894608 392.82913517 -312.07477385 414.92449225 -306.0625 434.5 C-302.76379398 442.38301045 -299.38108275 450.10078736 -291.6875 454.375 C-285.15144947 456.40342948 -281.31239898 455.8408108 -275.1875 452.9375 C-269.63209463 449.97691751 -264.81185611 446.61610863 -260.0625 442.5 C-259.15371094 441.71238281 -258.24492187 440.92476562 -257.30859375 440.11328125 C-252.60369574 435.93328343 -248.18684224 431.69453457 -244.125 426.890625 C-221.0077599 400.09564216 -195.6775779 386.23106527 -163.1875 373.1875 C-162.45018646 372.89081421 -161.71287292 372.59412842 -160.95321655 372.28845215 C-146.40300581 366.45386847 -131.97377931 361.54355648 -116.625 358.1875 C-103.0335738 355.04766995 -90.24091227 351.32964769 -79.93359375 341.43359375 C-78.48151608 338.21037203 -79.25501814 335.88655107 -80.0625 332.5 C-81.2277123 329.63967703 -82.63761019 326.95465243 -84.125 324.25 C-84.52912109 323.50419678 -84.93324219 322.75839355 -85.34960938 321.98999023 C-91.02575497 311.71363509 -98.09978003 303.07918861 -106.0625 294.5 C-106.9756183 293.48586716 -107.88701269 292.47018007 -108.796875 291.453125 C-113.29691747 286.44155456 -117.81515179 281.59539515 -122.98828125 277.26171875 C-125.48116183 275.1444134 -127.85588864 272.91578547 -130.25 270.6875 C-134.38730929 266.91473685 -138.63411698 263.36358177 -143.0625 259.9375 C-143.61446045 259.50783936 -144.1664209 259.07817871 -144.73510742 258.63549805 C-149.06202991 254.97372396 -149.06202991 254.97372396 -154.19921875 255.4765625 Z M-101.0625 270.5 C-99.46482355 274.23083787 -97.10065161 276.89919855 -94.4375 279.9375 C-81.09812674 295.60915102 -70.00150636 315.88159738 -70.84375 337.04296875 C-71.98839596 349.89979573 -74.70917451 359.68441942 -84.89453125 368.21484375 C-88.62590758 370.90640374 -92.44188061 373.28606403 -96.4375 375.5625 C-97.08871826 375.93761719 -97.73993652 376.31273437 -98.41088867 376.69921875 C-115.17159737 385.81078395 -133.98830396 391.37057494 -151.99902344 397.42456055 C-181.20838908 407.26726998 -213.18654562 419.68606843 -231.0625 446.5 C-233.48138297 462.37518993 -230.41987276 481.33846168 -221.0625 494.5 C-211.05390504 507.45505048 -193.23866081 514.28493216 -177.51953125 517.14453125 C-165.53707631 518.37662549 -154.05207204 517.55057053 -142.32177734 514.9609375 C-139.90666343 514.46820624 -137.48910402 514.10922346 -135.05078125 513.75 C-133.36653545 513.44103357 -131.68292109 513.12860249 -130 512.8125 C-128.84008545 512.6738855 -128.84008545 512.6738855 -127.65673828 512.5324707 C-124.86704087 511.93640475 -123.32329642 511.27356919 -121.0625 509.5 C-118.25204501 505.11418088 -116.16235128 500.51869232 -114.07327271 495.75619507 C-112.43040083 492.0890606 -110.59949717 488.51997475 -108.78125 484.9375 C-108.07717842 483.53172369 -107.37405042 482.12547439 -106.671875 480.71875 C-103.46875 474.3125 -100.265625 467.90625 -97.0625 461.5 C-98.89208055 471.10143516 -101.41530434 480.05964258 -104.75 489.25 C-105.56898385 491.53553633 -106.38552596 493.82194961 -107.19921875 496.109375 C-107.73615356 497.5938916 -107.73615356 497.5938916 -108.28393555 499.10839844 C-109.16568378 501.39777119 -109.16568378 501.39777119 -109.0625 503.5 C-75.22038607 496.86637809 -41.1592355 478.86744652 -15.0625 456.5 C-14.48161621 456.0457666 -13.90073242 455.5915332 -13.30224609 455.12353516 C-11.59619266 453.66786654 -10.28418735 452.38195295 -9.0625 450.5 C-8.76749964 443.56749162 -11.8327928 437.51390824 -14.5625 431.25 C-15.03373291 430.15042969 -15.50496582 429.05085937 -15.99047852 427.91796875 C-21.11887701 416.10327989 -26.65246054 404.47387785 -32.22265625 392.86230469 C-44.60170838 367.02597158 -44.60170838 367.02597158 -39.23046875 350.87109375 C-38.84503906 350.08863281 -38.45960938 349.30617188 -38.0625 348.5 C-37.0725 348.17 -36.0825 347.84 -35.0625 347.5 C-33.95312424 348.60937576 -32.84453643 349.71954365 -31.73828125 350.83203125 C-30.51661732 352.04799978 -29.28318694 353.2521803 -28.04296875 354.44921875 C-23.03212095 359.33720864 -18.51599621 364.44781735 -14.14453125 369.9140625 C-12.33446199 372.16221606 -10.47357128 374.33807211 -8.5625 376.5 C-6.0625 379.5 -6.0625 379.5 -5.0625 382.5 C-6.47931634 382.18817931 -7.89594651 381.87551263 -9.3125 381.5625 C-10.10140625 381.38847656 -10.8903125 381.21445312 -11.703125 381.03515625 C-13.83128703 380.552444 -15.94782842 380.03836822 -18.0625 379.5 C-17.5313126 384.72521755 -16.27793007 388.76576817 -14.04296875 393.5078125 C-13.59320427 394.47882401 -13.59320427 394.47882401 -13.13435364 395.4694519 C-12.18155534 397.52547163 -11.21724763 399.57574245 -10.25 401.625 C-1.49867938 420.18341268 5.25260679 437.07587975 -1.03125 457.67578125 C-7.43036505 474.34374648 -20.32676201 485.54117872 -34.15917969 496.04980469 C-36.06628794 497.50288614 -37.95933182 498.97292961 -39.8515625 500.4453125 C-54.62642168 511.84689912 -70.16793551 521.57399668 -87.0625 529.5 C-88.38829105 530.13354943 -89.71381121 530.76766603 -91.0390625 531.40234375 C-97.94766866 534.68905376 -104.90466957 537.78844542 -112.0625 540.5 C-111.48491682 551.2815527 -108.45968932 565.22998598 -101.0625 573.5 C-95.12338815 578.13250724 -90.38422508 579.11298163 -83.0625 578.5 C-70.95984773 576.20030118 -61.27690722 569.31876551 -52.0625 561.5 C-51.44761719 561.01917969 -50.83273437 560.53835938 -50.19921875 560.04296875 C-44.63860224 555.60725857 -40.41767619 550.07930916 -36.0625 544.5 C-35.52109375 543.80696777 -34.9796875 543.11393555 -34.421875 542.39990234 C-31.39272486 538.51712831 -28.37100534 534.62860704 -25.3515625 530.73828125 C-24.78083008 530.00303223 -24.21009766 529.2677832 -23.62207031 528.51025391 C-22.33814683 526.85530306 -21.05560321 525.19928179 -19.7734375 523.54296875 C-14.94913307 517.39843287 -9.77081202 511.61148244 -4.41210938 505.93310547 C-3.17698671 504.62156964 -1.95498243 503.29771163 -0.734375 501.97265625 C6.83476069 494.03021285 16.47820099 484.98884172 26.52412415 480.29019165 C29.19877742 478.71333711 29.19877742 478.71333711 29.54550171 475.79512024 C29.53741486 474.70168808 29.529328 473.60825592 29.52099609 472.48168945 C29.52384613 471.23801102 29.52669617 469.99433258 29.52963257 468.71296692 C29.50735824 467.34639472 29.48444168 465.97983285 29.4609375 464.61328125 C29.45413322 463.19533613 29.44941999 461.77737959 29.44668579 460.35942078 C29.43324072 456.60513659 29.38900834 452.85179115 29.33911133 449.09783936 C29.30430006 446.1083016 29.29075898 443.11886649 29.27856159 440.12916374 C32.20165382 402.7393416 32.20165382 402.7393416 23.9375 368.5 C21.69301208 367.14227157 21.69301208 367.14227157 19 366.125 C3.28843299 359.35066201 -8.98697006 349.61089662 -21.37890625 338 C-23.67208458 335.86370577 -25.99913261 333.79297234 -28.375 331.75 C-31.49338732 329.04954088 -34.39188747 326.1918964 -37.28125 323.25 C-39.14639674 321.41757513 -41.08177746 319.70646865 -43.0625 318 C-45.66897609 315.7544206 -48.15184521 313.45448488 -50.5625 311 C-53.55457574 307.96064541 -56.68584019 305.14817766 -59.91796875 302.3671875 C-62.21357429 300.36846355 -64.447296 298.31054771 -66.6875 296.25 C-75.27846245 288.51287939 -84.48690695 281.54822654 -93.875 274.8125 C-94.47989258 274.3781665 -95.08478516 273.94383301 -95.70800781 273.49633789 C-98.16273013 271.4115083 -98.16273013 271.4115083 -101.0625 270.5 Z M114.9375 393.5 C110.0333328 406.65208475 115.37937213 421.32303282 120.9375 433.5 C122.49854122 435.8556198 122.49854122 435.8556198 123.9375 437.5 C133.33039561 436.03703573 143.24250093 428.96808125 148.9375 421.5 C150.6668332 415.72993215 149.30305612 410.64412277 146.9375 405.25 C143.302273 398.76442455 138.10200327 393.75687176 130.9375 391.5 C127.94931726 391.18602561 127.94931726 391.18602561 124.875 391.25 C123.34166016 391.24226563 123.34166016 391.24226563 121.77734375 391.234375 C118.91127912 391.50245257 117.2774137 391.84233904 114.9375 393.5 Z " fill="#000000" transform="translate(338.0625,-0.5)"/>
<path d="M0 0 C3.29644872 2.99367707 5.23166795 5.93356744 7.25 9.890625 C7.85328125 11.06447754 8.4565625 12.23833008 9.078125 13.44775391 C9.7191881 14.71494774 10.35980377 15.982368 11 17.25 C11.66100656 18.54759352 12.32246967 19.84495456 12.984375 21.14208984 C14.33403326 23.79065902 15.67846444 26.44179778 17.01953125 29.09472656 C18.88924644 32.7895855 20.78668853 36.46948081 22.6875 40.1484375 C23.79244622 42.30689278 24.89665338 44.46572661 26 46.625 C26.78310547 48.13368652 26.78310547 48.13368652 27.58203125 49.67285156 C28.04996094 50.59807617 28.51789062 51.52330078 29 52.4765625 C29.4125 53.28174316 29.825 54.08692383 30.25 54.91650391 C31 57 31 57 30 60 C23.07 56.04 23.07 56.04 16 52 C17.2287502 61.35205896 18.4603054 70.70374441 19.69402313 80.05514908 C19.99942954 82.3706749 20.30456714 84.68623604 20.60968018 87.00180054 C23.11391233 105.99897321 25.67862735 124.98561567 28.34350586 143.9609375 C31.38278405 165.60278357 34.41200281 187.19417617 36 209 C36.06767578 209.88864746 36.13535156 210.77729492 36.20507812 211.69287109 C37.000727 222.57441639 37.11609598 233.46753481 37.1875 244.375 C37.20063232 245.6112915 37.21376465 246.84758301 37.22729492 248.12133789 C37.23709361 259.39661507 36.7232557 270.54610743 31.875 280.875 C31.06675781 282.63457031 31.06675781 282.63457031 30.2421875 284.4296875 C29.83226562 285.27789062 29.42234375 286.12609375 29 287 C28.01 287 27.02 287 26 287 C24.68989452 275.72496118 23.68795765 264.44109473 22.8515625 253.12109375 C22.8019915 252.45292255 22.7524205 251.78475136 22.70134735 251.09633255 C22.23652703 244.82881283 21.77639376 238.5609629 21.328125 232.29223633 C18.39147074 191.35287814 12.5601324 150.83847963 6.80809653 110.22065383 C5.97210987 104.31576186 5.14010003 98.41031505 4.3091687 92.50470984 C3.30173376 85.34474355 2.2919666 78.18510773 1.28130579 71.02559614 C0.99483278 68.99531004 0.7087425 66.96497031 0.42272568 64.9346199 C-0.11131459 61.14710837 -0.64739624 57.35989136 -1.18408203 53.57275391 C-1.33892059 52.47241821 -1.49375916 51.37208252 -1.65328979 50.23840332 C-2.53719021 44.01889423 -3.51435099 37.82535465 -4.60230827 31.6380825 C-5.71025646 24.28852373 -4.78820197 17.73401578 -3.0625 10.5625 C-2.88009766 9.76134766 -2.69769531 8.96019531 -2.50976562 8.13476562 C-1.16488422 2.32976845 -1.16488422 2.32976845 0 0 Z " fill="#000000" transform="translate(560,131)"/>
<path d="M0 0 C0.66 0 1.32 0 2 0 C5.11765972 7.21268165 8.23006268 14.42760652 11.33582211 21.64541912 C12.77820041 24.99706765 14.22236023 28.3479245 15.6706543 31.69702148 C17.06894338 34.93066708 18.46247015 38.16632661 19.85275459 41.4034214 C20.64106491 43.23550599 21.43425989 45.06548631 22.2275238 46.89543152 C22.70794632 48.01621597 23.18836884 49.13700043 23.68334961 50.29174805 C24.31955482 51.76734444 24.31955482 51.76734444 24.96861267 53.27275085 C25.94464755 55.85363412 26.54970641 58.28305393 27 61 C23.40056264 59.66306612 20.26874082 58.00519395 17 56 C17.59601832 64.82299687 18.49698191 73.56121356 19.65820312 82.32666016 C19.82255356 83.58860703 19.98690399 84.85055389 20.15623474 86.15074158 C20.51001438 88.86706981 20.86589509 91.5831109 21.22349548 94.29893875 C21.79030689 98.60396944 22.35207191 102.90965001 22.91320801 107.21542358 C23.90271601 114.80338123 24.89633513 122.39079608 25.89093018 129.97808838 C27.38840714 141.40174981 28.88285215 152.8258068 30.3730216 164.25042379 C30.93011721 168.52025109 31.48944662 172.78977775 32.05062103 177.05907083 C32.31579574 179.07883353 32.57998855 181.09872188 32.84376526 183.1186676 C33.16348445 185.56677881 33.48471355 188.01469356 33.80784607 190.46235657 C35.42611507 202.89720326 36.23681469 215.09313067 36.25 227.625 C36.25133942 228.37845703 36.25267883 229.13191406 36.25405884 229.90820312 C36.24982659 240.8828534 35.80801147 251.33212081 33 262 C32.62294922 263.5778125 32.62294922 263.5778125 32.23828125 265.1875 C30.94736842 270.10526316 30.94736842 270.10526316 30 272 C29.01 272.33 28.02 272.66 27 273 C26.81751709 271.71319336 26.63503418 270.42638672 26.44702148 269.10058594 C25.30220118 261.04753932 24.15694074 252.99495441 22.94541931 244.95162964 C19.72251893 223.53435288 16.84925754 202.08407915 14.2265625 180.5859375 C14.04347629 179.08554711 14.04347629 179.08554711 13.85669136 177.55484581 C13.22374514 172.36439308 12.59207261 167.17378588 11.96084595 161.98312378 C8.11115955 130.33008337 4.16051299 98.7145167 -0.625 67.1875 C-0.73070438 66.4905024 -0.83640877 65.79350479 -0.94531631 65.07538605 C-2.73819647 53.26992321 -4.55735549 41.47027438 -6.57650757 29.7011261 C-8.40121097 18.06277412 -5.06567004 10.29933424 0 0 Z " fill="#000000" transform="translate(447,23)"/>
<path d="M0 0 C4.48439592 1.26449536 7.45711795 2.86582133 11 5.875 C16.85040449 11.39051322 16.85040449 11.39051322 24 14 C25.94983211 11.53824285 27.7538331 9.01740978 29.546875 6.44140625 C31.73141682 3.39917519 33.42420114 1.28990004 37 0 C42.57702466 3.34269617 46.84707713 7.61563409 51.375 12.25 C52.11105469 12.99507813 52.84710938 13.74015625 53.60546875 14.5078125 C55.40830047 16.33405762 57.20626978 18.16482205 59 20 C56.49162104 26.45977891 52.67395235 33.79029342 47 38 C44.8203125 38.45703125 44.8203125 38.45703125 42 38 C39.42273863 36.28753524 37.20332703 34.2250348 34.9375 32.125 C33.72074757 31.01979389 32.50078828 29.91810597 31.27734375 28.8203125 C30.47671509 28.08192139 30.47671509 28.08192139 29.65991211 27.32861328 C27.87253946 25.89797908 26.07584591 24.95252334 24 24 C22.72719706 25.41489734 21.4568417 26.83199666 20.1875 28.25 C19.47980469 29.03890625 18.77210938 29.8278125 18.04296875 30.640625 C16.25831065 32.7016833 14.60240938 34.79605523 13 37 C3.65040098 36.14753656 -2.99859385 28.36413236 -9.171875 21.80078125 C-10.51476618 18.88062638 -9.86952392 17.05617478 -9 14 C-7.65423577 11.41704625 -6.0766675 9.02978172 -4.4375 6.625 C-4.01275391 5.98433594 -3.58800781 5.34367187 -3.15039062 4.68359375 C-2.10941258 3.1162785 -1.05595366 1.55726499 0 0 Z " fill="#000000" transform="translate(454,297)"/>
<path d="M0 0 C4.60370885 0.21247887 7.04217023 2.36988087 10.4375 5.3125 C15.94054358 10.05256485 15.94054358 10.05256485 22 14 C25.92064857 12.69311714 26.7803216 10.85695653 29.125 7.5 C32.9826087 2.0173913 32.9826087 2.0173913 34 1 C37.29741747 0.54439828 38.64033956 0.7465362 41.39453125 2.6875 C42.19246094 3.450625 42.99039063 4.21375 43.8125 5 C44.67359375 5.81984375 45.5346875 6.6396875 46.421875 7.484375 C47.27265625 8.31453125 48.1234375 9.1446875 49 10 C49.78890625 10.72703125 50.5778125 11.4540625 51.390625 12.203125 C52.46570313 13.21632813 52.46570313 13.21632813 53.5625 14.25 C54.20316406 14.85328125 54.84382813 15.4565625 55.50390625 16.078125 C57.36877408 18.47372544 57.8575559 19.96731906 58 23 C55.64874517 28.65715447 51.87461811 34.25029376 47 38 C44.7890625 38.484375 44.7890625 38.484375 42 38 C39.42475254 36.28418379 37.20351815 34.22521194 34.9375 32.125 C33.72074757 31.01979389 32.50078828 29.91810597 31.27734375 28.8203125 C30.47671509 28.08192139 30.47671509 28.08192139 29.65991211 27.32861328 C27.87253946 25.89797908 26.07584591 24.95252334 24 24 C23.32904297 24.77923828 23.32904297 24.77923828 22.64453125 25.57421875 C21.39398423 27.0167474 20.13581021 28.45269047 18.87109375 29.8828125 C17.7644984 31.13495171 16.66860922 32.39693046 15.59765625 33.6796875 C14.375 35.0625 14.375 35.0625 12 37 C4.13427279 36.58741532 -2.62976925 28.69399241 -7.75 23.25 C-10 20 -10 20 -9.85546875 17.71484375 C-8.78907793 14.33063545 -7.26847281 11.42297433 -5.5625 8.3125 C-4.94503906 7.17425781 -4.32757813 6.03601563 -3.69140625 4.86328125 C-2 2 -2 2 0 0 Z " fill="#000000" transform="translate(160,306)"/>
<path d="M0 0 C-1.70110214 4.9938788 -4.5165703 9.19353224 -7.3125 13.625 C-14.80246017 25.69479293 -21.40981152 37.35021942 -20 52 C-19.22472453 55.10558324 -18.22581773 58.04490368 -17 61 C-14.80085503 61.59197613 -14.80085503 61.59197613 -12 61 C-10.25512868 59.46394649 -10.25512868 59.46394649 -8.5625 57.5625 C-6.05681852 54.8370219 -5.26376237 54.07193519 -1.5625 53.0625 C-0.716875 53.041875 0.12875 53.02125 1 53 C-0.47562811 64.60148998 -8.59208656 75.5863127 -17.375 83.0625 C-21.1396421 85.84116441 -23.33188937 86.152594 -28.02734375 86.328125 C-30.64860566 85.89211312 -31.4124128 85.11218123 -33 83 C-39.03749904 67.95785496 -37.59371758 51.91695329 -31.5390625 37.1875 C-28.90282994 31.7276884 -25.5610284 26.89159316 -22 22 C-21.28585938 20.98808594 -20.57171875 19.97617188 -19.8359375 18.93359375 C-6.14958493 0 -6.14958493 0 0 0 Z " fill="#000000" transform="translate(57,155)"/>
<path d="M0 0 C4.39983056 0.43998306 6.38373855 1.5567346 9.75 4.375 C11.84058535 7.32082481 12.20835589 9.79982406 11.75 13.375 C10.5625 15.25 10.5625 15.25 8.75 16.375 C5.67163002 16.21713487 4.11471453 15.66235084 1.6875 13.75 C1.048125 13.29625 0.40875 12.8425 -0.25 12.375 C-2.34918542 12.74467885 -2.34918542 12.74467885 -4.25 13.375 C-4.29487549 14.13006836 -4.33975098 14.88513672 -4.38598633 15.66308594 C-4.59993087 19.15120791 -4.83112594 22.63799246 -5.0625 26.125 C-5.13275391 27.31222656 -5.20300781 28.49945312 -5.27539062 29.72265625 C-5.81066871 37.55912748 -7.06678898 44.82874022 -9.25 52.375 C-10.57 52.375 -11.89 52.375 -13.25 52.375 C-14.02923828 50.83779297 -14.02923828 50.83779297 -14.82421875 49.26953125 C-15.52814996 47.90859757 -16.23260498 46.54793473 -16.9375 45.1875 C-17.27716797 44.51396484 -17.61683594 43.84042969 -17.96679688 43.14648438 C-21.96696904 35.48260313 -27.08468592 30.68448233 -35.375 28.0625 C-38.40052723 26.94362578 -39.17860305 26.46647734 -41.25 23.8125 C-42.55818429 19.31561652 -42.86658809 15.02743742 -42.25 10.375 C-40.25 7.375 -40.25 7.375 -37.625 6.8125 C-29.68733019 8.13544497 -23.91357626 15.21615153 -19.25 21.375 C-16.81845069 24.98418202 -14.50193543 28.65143503 -12.25 32.375 C-12.14510254 31.49146851 -12.14510254 31.49146851 -12.03808594 30.59008789 C-11.70670114 27.87054822 -11.35348747 25.15425165 -11 22.4375 C-10.83564453 21.04821289 -10.83564453 21.04821289 -10.66796875 19.63085938 C-8.17631022 0.94342041 -8.17631022 0.94342041 0 0 Z " fill="#000000" transform="translate(445.25,509.625)"/>
<path d="M0 0 C7.41049624 1.15200539 16.14324415 10.55902132 20.61328125 16.40625 C21.59765625 18.7265625 21.59765625 18.7265625 21.61328125 21.40625 C20.26392606 23.85030984 18.96222493 25.88765261 17.30078125 28.09375 C16.67526367 28.96483398 16.67526367 28.96483398 16.03710938 29.85351562 C14.34438754 32.18876983 12.6550041 34.36452715 10.61328125 36.40625 C5.20192804 36.53509174 2.44004232 33.94714338 -1.2890625 30.43359375 C-1.98128906 29.76457031 -2.67351562 29.09554688 -3.38671875 28.40625 C-4.13050781 27.74753906 -4.87429687 27.08882813 -5.640625 26.41015625 C-8.88376509 23.43389352 -11.08616246 21.11190389 -12.82421875 17.03125 C-12.14630511 11.41425129 -8.94273273 7.67944327 -5.38671875 3.40625 C-4.9175 2.81328125 -4.44828125 2.2203125 -3.96484375 1.609375 C-2.38671875 0.40625 -2.38671875 0.40625 0 0 Z " fill="#000000" transform="translate(227.38671875,415.59375)"/>
<path d="M0 0 C1.125 6.625 1.125 6.625 0 10 C-0.66 10 -1.32 10 -2 10 C-2 9.01 -2 8.02 -2 7 C-5.51202512 8.20728609 -5.51202512 8.20728609 -9 10 C-10.04289755 12.06890419 -10.04289755 12.06890419 -10 14 C-5.70772644 16.86151571 -2.04088776 16.48782785 3 16 C6.41134896 15.19923559 9.70157738 14.17901064 13 13 C13.495 16.465 13.495 16.465 14 20 C7.29738093 25.34659787 0.3975526 30.18446529 -6.9375 34.625 C-8.01922485 35.29958252 -8.01922485 35.29958252 -9.12280273 35.98779297 C-14.2991103 39.05286294 -14.2991103 39.05286294 -18.00390625 38.7734375 C-18.99197266 38.39058594 -18.99197266 38.39058594 -20 38 C-20 35 -20 35 -17.8125 32.73828125 C-16.884375 31.93777344 -15.95625 31.13726562 -15 30.3125 C-13.6078125 29.10013672 -13.6078125 29.10013672 -12.1875 27.86328125 C-11.465625 27.24839844 -10.74375 26.63351562 -10 26 C-10.49371094 25.44570313 -10.98742187 24.89140625 -11.49609375 24.3203125 C-12.13675781 23.59585937 -12.77742188 22.87140625 -13.4375 22.125 C-14.07558594 21.40570313 -14.71367187 20.68640625 -15.37109375 19.9453125 C-17.36989814 17.55825114 -17.95144132 16.35609702 -18.375 13.25 C-17.73488595 7.70234487 -14.2131293 5.00215029 -10.125 1.625 C-6.47925228 -0.27078882 -4.05342764 -0.32427421 0 0 Z " fill="#000000" transform="translate(328,254)"/>
<path d="M0 0 C0.66 0 1.32 0 2 0 C2.14681713 4.62473953 2.19541568 8.70890042 1 13.1875 C-1.07341077 21.66014255 -1.40797428 30.3354748 3 38 C5.64 38 8.28 38 11 38 C11.49139215 42.12769407 11.15847105 43.7529716 8.875 47.3125 C6 50 6 50 3.0625 51.125 C-1.06642218 50.95647256 -2.89722318 49.67967089 -6 47 C-8.19351922 42.86663385 -8.38552939 38.84028635 -8.375 34.25 C-8.37338867 33.51209229 -8.37177734 32.77418457 -8.37011719 32.01391602 C-8.13108468 20.94225852 -5.70096268 9.56947307 0 0 Z " fill="#000000" transform="translate(100,206)"/>
<path d="M0 0 C0.33 0 0.66 0 1 0 C1.0093457 0.65484375 1.01869141 1.3096875 1.02832031 1.984375 C1.0824526 4.99030905 1.16601389 7.99475775 1.25 11 C1.26417969 12.02996094 1.27835937 13.05992188 1.29296875 14.12109375 C1.50622688 20.81739894 2.53970752 25.24207331 6 31 C6.61359375 30.69320312 7.2271875 30.38640625 7.859375 30.0703125 C9.90625 29.046875 11.953125 28.0234375 14 27 C15.27870002 32.69602737 14.76677133 35.86171038 12 41 C10.6875 43 10.6875 43 9 44 C5.02590991 44 3.33822161 43.27672677 0.25 40.75 C-4.82962225 34.54157281 -5.69670158 26.84389885 -5 19 C-2.65993159 4.5797083 -2.65993159 4.5797083 0 0 Z " fill="#000000" transform="translate(425,105)"/>
<path d="M0 0 C0.66 0.66 1.32 1.32 2 2 C1.9765625 4.80078125 1.9765625 4.80078125 1.625 8.3125 C0.12686168 23.03691074 0.12686168 23.03691074 4 37 C4.66 37.66 5.32 38.32 6 39 C7.65 38.34 9.3 37.68 11 37 C11.08114106 38.77007714 11.13925505 40.54122098 11.1875 42.3125 C11.23970703 43.79169922 11.23970703 43.79169922 11.29296875 45.30078125 C11 48 11 48 9.6640625 49.81640625 C8 51 8 51 5.1875 51.625 C1.03446001 50.81067843 -0.23042641 49.04222206 -2.80078125 45.82421875 C-9.10547157 36.23369634 -4.95071566 17.99885954 -2.8515625 7.40625 C-2.1549563 4.61982522 -1.44195661 2.45759561 0 0 Z " fill="#000000" transform="translate(601,238)"/>
<path d="M0 0 C0.66 0 1.32 0 2 0 C2.04898438 1.22976563 2.09796875 2.45953125 2.1484375 3.7265625 C2.22351029 5.35939566 2.29905615 6.99220712 2.375 8.625 C2.4059375 9.43324219 2.436875 10.24148438 2.46875 11.07421875 C2.6952946 15.71838314 3.2592668 19.62693856 5 24 C5.721875 23.855625 6.44375 23.71125 7.1875 23.5625 C9.0625 23.1875 10.9375 22.8125 12.8125 22.4375 C13.534375 22.293125 14.25625 22.14875 15 22 C14.66663876 28.44498407 13.77418181 31.55133059 9 36 C6.5 37.0625 6.5 37.0625 4 37 C0.64933016 35.64377649 -0.72684955 34.44386947 -2.625 31.359375 C-6.36298757 22.22679174 -4.49945743 10.01155618 -1 1 C-0.67 0.67 -0.34 0.34 0 0 Z " fill="#000000" transform="translate(188,550)"/>
<path d="M0 0 C0.66 0 1.32 0 2 0 C1.9278125 0.72703125 1.855625 1.4540625 1.78125 2.203125 C1.28053089 7.62758208 0.86855519 13.05493274 0.6875 18.5 C0.65011719 19.4590625 0.61273438 20.418125 0.57421875 21.40625 C1.11940879 24.72740766 2.46561889 25.88051758 5 28 C5.5775 27.67 6.155 27.34 6.75 27 C9 26 9 26 13 26 C12.60526418 31.72366945 12.05692636 35.62278998 8 40 C4.25 40.875 4.25 40.875 1 41 C-2.97343736 34.20670388 -4.18148913 29.71317373 -4.1875 21.875 C-4.19974609 21.05773437 -4.21199219 20.24046875 -4.22460938 19.3984375 C-4.24088885 12.53934996 -3.87918425 5.81877637 0 0 Z " fill="#000000" transform="translate(196,113)"/>
</svg>
